<svg xmlns="http://www.w3.org/2000/svg" width="138.46" height="35" viewBox="0 0 138.46 35"><rect class="svg__rect" x="0" y="0" width="80.4" height="35" fill="#000000"/><rect class="svg__rect" x="78.4" y="0" width="60.06" height="35" fill="#F79817"/><path class="svg__text" d="M15.69 22L14.22 22L14.22 13.47L16.14 13.47L18.60 20.01L21.06 13.47L22.97 13.47L22.97 22L21.49 22L21.49 19.19L21.64 15.43L19.12 22L18.06 22L15.55 15.43L15.69 19.19L15.69 22ZM27.44 18.00L27.44 18.00L27.44 17.52Q27.44 16.28 27.88 15.32Q28.33 14.37 29.13 13.86Q29.94 13.35 30.98 13.35Q32.02 13.35 32.83 13.85Q33.64 14.35 34.07 15.29Q34.51 16.23 34.52 17.48L34.52 17.48L34.52 17.96Q34.52 19.21 34.09 20.16Q33.65 21.10 32.85 21.61Q32.04 22.12 30.99 22.12L30.99 22.12Q29.96 22.12 29.14 21.61Q28.33 21.10 27.89 20.17Q27.45 19.23 27.44 18.00ZM28.92 17.46L28.92 17.96Q28.92 19.36 29.47 20.13Q30.02 20.90 30.99 20.90L30.99 20.90Q31.98 20.90 32.51 20.15Q33.04 19.40 33.04 17.96L33.04 17.96L33.04 17.51Q33.04 16.09 32.50 15.34Q31.97 14.58 30.98 14.58L30.98 14.58Q30.02 14.58 29.48 15.33Q28.94 16.09 28.92 17.46L28.92 17.46ZM40.47 22L38.98 22L38.98 13.47L40.47 13.47L44.28 19.54L44.28 13.47L45.75 13.47L45.75 22L44.27 22L40.47 15.95L40.47 22ZM51.98 22L50.49 22L50.49 13.47L51.98 13.47L51.98 17.47L52.80 16.46L55.29 13.47L57.08 13.47L53.91 17.25L57.27 22L55.51 22L52.94 18.31L51.98 19.34L51.98 22ZM66.62 22L61.05 22L61.05 13.47L66.58 13.47L66.58 14.66L62.53 14.66L62.53 17.02L66.03 17.02L66.03 18.19L62.53 18.19L62.53 20.82L66.62 20.82L66.62 22Z" fill="#FFFFFF"/><path class="svg__text" d="M94.97 22L92.59 22L92.59 13.60L94.97 13.60L94.97 16.76L98.21 16.76L98.21 13.60L100.58 13.60L100.58 22L98.21 22L98.21 18.72L94.97 18.72L94.97 22ZM105.67 18.26L105.67 18.26L105.67 13.60L108.05 13.60L108.05 18.19Q108.05 20.20 109.64 20.20L109.64 20.20Q111.23 20.20 111.23 18.19L111.23 18.19L111.23 13.60L113.57 13.60L113.57 18.26Q113.57 20.13 112.53 21.15Q111.49 22.17 109.62 22.17L109.62 22.17Q107.75 22.17 106.71 21.15Q105.67 20.13 105.67 18.26ZM123.20 22L118.66 22L118.66 13.60L122.96 13.60Q124.56 13.60 125.40 14.19Q126.24 14.79 126.24 15.79L126.24 15.79Q126.24 16.39 125.95 16.87Q125.65 17.34 125.11 17.62L125.11 17.62Q125.83 17.87 126.24 18.41Q126.65 18.94 126.65 19.70L126.65 19.70Q126.65 20.80 125.76 21.40Q124.87 22 123.20 22L123.20 22ZM121.01 18.58L121.01 20.28L123.00 20.28Q124.25 20.28 124.25 19.43L124.25 19.43Q124.25 18.58 123.00 18.58L123.00 18.58L121.01 18.58ZM121.01 15.31L121.01 16.94L122.64 16.94Q123.84 16.94 123.84 16.12L123.84 16.12Q123.84 15.31 122.64 15.31L122.64 15.31L121.01 15.31Z" fill="#FFFFFF" x="91.4"/></svg>